<svg width="16" height="16" viewBox="0 0 16 16" fill="none" xmlns="http://www.w3.org/2000/svg">
<g clip-path="url(#clip0_15_258)">
<path d="M15.8359 0.03125C15.8792 0.0607784 15.9147 0.090307 15.9648 0.132107C15.9648 3.554 15.9648 7.00075 15.9648 10.4581C15.4632 10.4581 14.9609 10.4581 14.4433 10.4581C14.4433 7.91692 14.4433 5.36867 14.4433 2.7873C14.381 2.82259 14.3404 2.83811 14.3094 2.86486C14.2544 2.91232 14.2053 2.96655 14.1538 3.01804C9.87495 7.29695 5.59611 11.5759 1.31726 15.8548C1.17171 16.0003 1.17165 16.0003 1.03122 15.8598C0.751472 15.5798 0.477246 15.294 0.18928 15.0228C0.0747894 14.915 0.0926501 14.8559 0.194665 14.7542C2.04235 12.9122 3.88644 11.0666 5.73133 9.22181C8.21326 6.73997 10.6952 4.25817 13.177 1.77611C13.2154 1.73769 13.2508 1.69629 13.3121 1.62969C10.72 1.62969 8.1631 1.62969 5.60001 1.62969C5.60001 1.11052 5.60001 0.608328 5.60001 0.0937502C5.66184 0.0937502 5.71774 0.0937502 5.77363 0.0937502C9.06485 0.0937502 12.3561 0.0939195 15.6473 0.0922987C15.7022 0.0922716 15.7571 0.0704877 15.8122 0.0450533C15.8125 0.0312502 15.8281 0.0312502 15.8359 0.03125Z" fill="white"/>
</g>
<defs>
<clipPath id="clip0_15_258">
<rect width="16" height="16" fill="white"/>
</clipPath>
</defs>
</svg>
